<?xml version="1.0" standalone="no"?><!DOCTYPE svg PUBLIC "-//W3C//DTD SVG 1.1//EN" "http://www.w3.org/Graphics/SVG/1.1/DTD/svg11.dtd"><svg t="1713857818519" class="icon" viewBox="0 0 1181 1024" version="1.1" xmlns="http://www.w3.org/2000/svg" p-id="15409" xmlns:xlink="http://www.w3.org/1999/xlink" width="55.359375" height="48"><path d="M372.34574 820.326054a38.427561 38.427561 0 0 1-38.545678-38.309444V177.766841C333.800062 79.729314 413.883728 0 512.354353 0h490.227007C1101.051984 0 1181.175023 79.768687 1181.175023 177.766841v348.604122a38.427561 38.427561 0 0 1-38.506306 38.348816 38.427561 38.427561 0 0 1-38.545678-38.348816V177.766841a101.423562 101.423562 0 0 0-101.541679-101.06921h-490.187635a101.423562 101.423562 0 0 0-101.581052 101.06921v604.249769a38.427561 38.427561 0 0 1-38.466933 38.309444m603.422947-205.642572c-113.471547 0-205.445709 91.541064-205.445709 204.500769 0 112.920332 91.974162 204.500769 205.445709 204.500769C1089.161489 1023.68502 1181.175023 932.104583 1181.175023 819.184251c0-112.959705-91.974162-204.500769-205.406336-204.500769z m-77.051984 204.500769a25.592125 25.592125 0 0 1-25.670871-25.592126 25.592125 25.592125 0 0 1 25.670871-25.552752h18.8988l-15.945863-35.159644c-6.063365-13.38665-2.480468-30.513688 8.071363-38.27007a18.308213 18.308213 0 0 1 10.945555-3.740388c7.598893 0 15.000923 5.03968 19.135035 13.977238l28.623808 63.192864h14.528453l28.741926-62.523532c4.09474-8.898185 11.49677-13.85912 19.095663-13.85912 3.701015 0 7.520148 1.181175 10.945555 3.701015 10.55183 7.677638 14.1741 24.56844 8.071363 37.797601l-16.024608 34.884036h18.977545a25.592125 25.592125 0 0 1 0 51.144878h-51.341741v25.592125h51.341741c14.1741 0 25.670871 11.418025 25.670871 25.513381a25.592125 25.592125 0 0 1-25.670871 25.592125h-51.341741v51.105506a25.592125 25.592125 0 0 1-25.67087 25.592126 25.592125 25.592125 0 0 1-25.710243-25.592126v-51.105506h-51.341741a25.592125 25.592125 0 0 1-25.670871-25.592125 25.592125 25.592125 0 0 1 25.670871-25.552753h51.341741v-25.592126h-51.341741z" fill="#2c2c2c" p-id="15410"></path><path d="M205.406337 640.236235c-113.392802 0-205.406337 85.832052-205.406337 191.744079C0 937.852968 91.974162 1023.68502 205.406337 1023.68502c113.471547 0 205.445709-85.832052 205.445709-191.744079 0-105.872655-91.974162-191.704706-205.445709-191.704706m0 76.697632c70.791756 0 128.393725 51.577976 128.393725 115.046447 0 63.389726-57.601969 115.007075-128.354353 115.007074-70.831129 0-128.393725-51.577976-128.393725-115.007074 0-63.429099 57.562596-115.046447 128.354353-115.046447" fill="#2c2c2c" p-id="15411"></path></svg>