<?xml version="1.0" standalone="no"?><!DOCTYPE svg PUBLIC "-//W3C//DTD SVG 1.1//EN" "http://www.w3.org/Graphics/SVG/1.1/DTD/svg11.dtd"><svg t="1713516136883" class="icon" viewBox="0 0 1024 1024" version="1.1" xmlns="http://www.w3.org/2000/svg" p-id="7704" width="48" height="48" xmlns:xlink="http://www.w3.org/1999/xlink"><path d="M512.28 31.8c-265.1 0-480 214.9-480 480s214.9 480 480 480 480-214.9 480-480-214.9-480-480-480z m183.78 613.71c15.56 15.68 15.47 41-0.21 56.57-7.8 7.74-17.99 11.61-28.18 11.61-10.29 0-20.57-3.94-28.39-11.82L509.66 571.29 382.38 698.57c-7.81 7.81-18.05 11.72-28.28 11.72s-20.47-3.91-28.28-11.72c-15.62-15.62-15.62-40.95 0-56.57L453.3 514.51 323.48 383.72c-15.56-15.68-15.47-41.01 0.21-56.57 15.68-15.56 41.01-15.47 56.57 0.21l129.61 130.58 132.91-132.91c15.62-15.62 40.95-15.62 56.57 0 15.62 15.62 15.62 40.95 0 56.57L566.23 514.72l129.83 130.79z" fill="#7F7F7F" p-id="7705"></path></svg>