<?xml version="1.0" standalone="no"?><!DOCTYPE svg PUBLIC "-//W3C//DTD SVG 1.1//EN" "http://www.w3.org/Graphics/SVG/1.1/DTD/svg11.dtd"><svg t="1713857846349" class="icon" viewBox="0 0 1024 1024" version="1.1" xmlns="http://www.w3.org/2000/svg" p-id="16767" xmlns:xlink="http://www.w3.org/1999/xlink" width="48" height="48"><path d="M964 588.896V894H60V588.896c42.288 0 76.568-34.428 76.568-76.896S102.288 435.104 60 435.104V130h904v305.104c-42.288 0-76.568 34.428-76.568 76.896s34.28 76.896 76.568 76.896zM616.492 288.278s-24.636 123.968-55.772 185.826c-26.722-32.88-67.384-53.884-112.938-53.884-80.484 0-145.728 65.524-145.728 146.352 0 80.826 65.244 146.35 145.728 146.35 61.836 0 114.666-38.684 135.824-93.27-9.562 24.668 26.478-58.612 71.992-231.364l73.004 42.33 33.344-58.002-145.454-84.338z m-123.016 336.586h-91.388c-6.822 0-12.35-5.554-12.35-12.404v-91.778c0-6.85 5.528-12.402 12.35-12.402h91.388c6.82 0 12.35 5.552 12.35 12.402v91.778c0 6.85-5.53 12.404-12.35 12.404z" p-id="16768" fill="#2c2c2c"></path></svg>