<?xml version="1.0" standalone="no"?><!DOCTYPE svg PUBLIC "-//W3C//DTD SVG 1.1//EN" "http://www.w3.org/Graphics/SVG/1.1/DTD/svg11.dtd"><svg t="1713857898878" class="icon" viewBox="0 0 1820 1024" version="1.1" xmlns="http://www.w3.org/2000/svg" p-id="18235" xmlns:xlink="http://www.w3.org/1999/xlink" width="85.3125" height="48"><path d="M1167.454815 390.257778V383.051852H1148.207407V269.274074l-312.32 61.060741v52.622222H652.98963v7.205926h182.802963V445.62963H652.98963v7.205926h182.802963v55.466666H652.98963v7.205926h182.802963v55.466667H652.98963v7.205926h182.802963v47.407407c-22.945185-9.765926-58.216296-7.68-92.823704 7.68-0.284444 0.094815-0.474074 0.284444-0.758519 0.379259h-89.125926v7.205926h74.998519c-41.339259 23.514074-64.474074 60.302222-52.622222 86.945186 13.274074 29.677037 64.948148 35.555556 115.484444 13.084444 44.183704-19.626667 72.817778-54.423704 70.447408-82.773333h0.094814v-17.256297h305.872593v-7.205926H861.487407v-55.466666h99.271112c-2.654815 9.671111-2.56 19.057778 1.232592 27.496296 13.274074 29.677037 64.948148 35.555556 115.484445 13.084444 23.324444-10.334815 42.192593-24.936296 54.613333-40.58074h35.271111v-7.205926h-30.151111c6.257778-9.576296 9.955556-19.247407 10.714074-28.539259h0.18963v-26.927408h19.247407v-7.205926h-19.247407v-55.466666h19.247407V445.62963h-19.247407v-55.466667h19.342222z m-45.037037-51.674074v44.373333H895.431111l226.986667-44.373333zM963.318519 571.06963H861.487407v-55.466667h158.90963c-28.065185 14.601481-48.545185 35.176296-57.078518 55.466667z m159.099259-67.508149c-21.428148-9.197037-53.665185-7.964444-85.997037 4.835556H861.487407v-55.466667h260.930371v50.631111z m0-57.837037H861.487407v-55.466666h260.930371v55.466666z" p-id="18236" fill="#2c2c2c"></path><path d="M910.222222 50.820741c254.293333 0 461.179259 206.885926 461.179259 461.179259s-206.885926 461.179259-461.179259 461.179259S449.042963 766.293333 449.042963 512 655.928889 50.820741 910.222222 50.820741m0-24.272593c-268.136296 0-485.451852 217.315556-485.451852 485.451852s217.315556 485.451852 485.451852 485.451852 485.451852-217.315556 485.451852-485.451852S1178.358519 26.548148 910.222222 26.548148z" p-id="18237" fill="#2c2c2c"></path></svg>